<svg width="1280" height="720" xmlns="http://www.w3.org/2000/svg"
    xmlns:xlink="http://www.w3.org/1999/xlink" overflow="hidden">
    <g>
        <rect x="0" y="0" width="1280" height="720" />
        <path
            d="M614.026 254.464C608.006 254.464 603.008 252.494 599.018 248.554 595.014 244.585 593.026 239.659 593.026 233.778 593.026 227.867 595.014 222.942 599.018 219.002 603.008 215.032 608.006 213.033 614.026 213.033 620.032 213.033 625.03 215.032 629.034 219.002 633.024 222.942 635.026 227.867 635.026 233.778 635.026 239.659 633.024 244.585 629.034 248.554 625.03 252.494 620.032 254.464 614.026 254.464ZM630.882 271.153 630.882 411.033 596.722 411.033 596.722 271.153Z"
            fill="#1A0B8C" fill-rule="evenodd" />
        <path
            d="M856.032 271.033 815.823 411.034 778.347 411.034 753.231 313.196 728.172 411.034 690.469 411.034 650.032 271.033 685.229 271.033 709.548 377.686 735.86 271.033 772.596 271.033 798.452 377.396 822.771 271.033Z"
            fill="#1A0B8C" fill-rule="evenodd" />
        <path
            d="M866.048 340.039C866.048 325.847 868.807 313.27 874.353 302.291 879.885 291.328 887.393 282.865 896.878 276.933 906.391 271 917.014 268.033 928.732 268.033 938.999 268.033 947.972 270.157 955.637 274.373 963.33 278.605 969.487 283.941 974.123 290.368L974.123 270.36 1009.05 270.36 1009.05 410.765 974.123 410.765 974.123 390.234C969.644 396.835 963.486 402.273 955.637 406.578 947.787 410.881 938.743 413.033 928.504 413.033 916.929 413.033 906.391 409.995 896.878 403.902 887.393 397.824 879.885 389.245 874.353 378.194 868.807 367.143 866.048 354.434 866.048 340.039ZM974.123 340.563C974.123 331.954 972.474 324.568 969.174 318.402 965.875 312.208 961.396 307.453 955.75 304.153 950.134 300.867 944.104 299.209 937.662 299.209 931.206 299.209 925.262 300.823 919.801 304.036 914.369 307.264 909.961 311.946 906.548 318.112 903.163 324.277 901.485 331.591 901.485 340.039 901.485 348.502 903.163 355.903 906.548 362.258 909.961 368.583 914.426 373.425 919.972 376.798 925.504 380.171 931.405 381.858 937.662 381.858 944.104 381.858 950.134 380.215 955.75 376.914 961.396 373.628 965.875 368.888 969.174 362.723 972.474 356.557 974.123 349.17 974.123 340.563Z"
            fill="#1A0B8C" fill-rule="evenodd" />
        <path
            d="M1119.24 269.033C1135.59 269.033 1148.81 274.31 1158.92 284.863 1169.01 295.386 1174.06 310.071 1174.06 328.929L1174.06 411.033 1139.33 411.033 1139.33 333.684C1139.33 322.595 1136.6 314.057 1131.14 308.056 1125.67 302.069 1118.23 299.068 1108.82 299.068 1099.21 299.068 1091.64 302.069 1086.1 308.056 1080.55 314.057 1077.79 322.595 1077.79 333.684L1077.79 411.033 1043.06 411.033 1043.06 271.062 1077.79 271.062 1077.79 288.458C1082.42 282.398 1088.32 277.644 1095.5 274.194 1102.7 270.758 1110.61 269.033 1119.24 269.033Z"
            fill="#1A0B8C" fill-rule="evenodd" />
        <path
            d="M1224.57 254.464C1218.41 254.464 1213.29 252.494 1209.21 248.554 1205.11 244.585 1203.07 239.659 1203.07 233.778 1203.07 227.867 1205.11 222.942 1209.21 219.002 1213.29 215.032 1218.41 213.033 1224.57 213.033 1230.72 213.033 1235.84 215.032 1239.94 219.002 1244.03 222.942 1246.08 227.867 1246.08 233.778 1246.08 239.659 1244.03 244.585 1239.94 248.554 1235.84 252.494 1230.72 254.464 1224.57 254.464ZM1241.83 271.153 1241.83 411.033 1206.86 411.033 1206.86 271.153Z"
            fill="#1A0B8C" fill-rule="evenodd" />
        <path
            d="M523.439 410.033 452.271 321.376 452.271 410.033 413.012 410.033 413.012 211.033 452.271 211.033 452.271 300.27 523.439 211.033 570.79 211.033 490.049 309.663 573.012 410.033Z"
            fill="#1A0B8C" fill-rule="evenodd" />
        <path
            d="M60.7832 185 125 185 125 491.501 112.405 491.501 112.405 491.501 23 524 37.0399 470.479 37.095 470.494 60.4482 380.891 60.7832 381.604Z"
            stroke="#FB7019" stroke-width="2" stroke-miterlimit="8" fill="#FB7019"
            fill-rule="evenodd" />
        <path d="M60 185 124.458 185 125 382 61.0846 355.287 60 185Z" stroke="#DF621A"
            stroke-width="2" stroke-miterlimit="8" fill="#DF621A" fill-rule="evenodd" />
        <path d="M147 185 234 185 147 266Z" stroke="#DF621A" stroke-width="2" stroke-miterlimit="8"
            fill="#DF621A" fill-rule="evenodd" />
        <path d="M145 493 145 401 235 493Z" stroke="#FB7019" stroke-width="2" stroke-miterlimit="8"
            fill="#FB7019" fill-rule="evenodd" />
        <path d="M363 462 234 336.5 363 211Z" stroke="#FFA82C" stroke-width="2"
            stroke-miterlimit="8" fill="#FFA82C" fill-rule="evenodd" />
        <path d="M334 377 295 334.358 334 296Z" stroke-width="2"
            stroke-miterlimit="8" fill-rule="evenodd" />
        <path
            d="M0 150.155 85.6469 150.155 239 0 153.353 0ZM153.353 304 239 304 85.647 153.845 0.000206239 153.845Z"
            stroke="#7A0000" stroke-width="4" stroke-miterlimit="8" fill="#7A0000"
            fill-rule="evenodd" transform="matrix(1 0 0 -1 114 491)" />
        <path
            d="M457.024 469.159C457.024 464.934 457.904 461.161 459.692 457.811 461.466 454.432 463.893 451.806 466.958 449.905 470.052 448.019 473.487 447.068 477.234 447.068 481.661 447.068 485.521 448.215 488.814 450.508 492.107 452.772 494.505 455.971 496.024 460.105L489.723 460.105C488.587 457.54 486.955 455.548 484.84 454.13 482.712 452.726 480.185 452.017 477.234 452.017 474.423 452.017 471.897 452.726 469.626 454.13 467.384 455.548 465.624 457.54 464.347 460.105 463.055 462.685 462.417 465.703 462.417 469.159 462.417 472.584 463.055 475.586 464.347 478.152 465.624 480.732 467.384 482.724 469.626 484.127 471.897 485.5 474.423 486.179 477.234 486.179 480.185 486.179 482.712 485.5 484.84 484.127 486.955 482.769 488.587 480.777 489.723 478.152L496.024 478.152C494.505 482.301 492.107 485.5 488.814 487.748 485.521 489.966 481.661 491.068 477.234 491.068 473.487 491.068 470.052 490.147 466.958 488.291 463.893 486.405 461.466 483.795 459.692 480.445 457.904 477.111 457.024 473.353 457.024 469.159Z"
            fill="#7A0000" fill-rule="evenodd" />
        <path
            d="M537.028 457.067 537.028 490.59 531.608 490.59 531.608 485.63C530.6 487.348 529.187 488.677 527.342 489.633 525.497 490.59 523.479 491.067 521.288 491.067 518.781 491.067 516.517 490.53 514.485 489.454 512.482 488.378 510.911 486.765 509.758 484.614 508.605 482.433 508.028 479.804 508.028 476.726L508.028 457.067 513.332 457.067 513.332 475.949C513.332 479.266 514.139 481.805 515.754 483.598 517.368 485.361 519.573 486.227 522.384 486.227 525.224 486.227 527.472 485.316 529.13 483.479 530.773 481.656 531.608 478.982 531.608 475.472L531.608 457.067Z"
            fill="#7A0000" fill-rule="evenodd" />
        <path d="M556.03 445.068 556.03 491.068 551.029 491.068 551.029 445.068Z" fill="#7A0000"
            fill-rule="evenodd" />
        <path
            d="M576.61 462.11 576.61 481.854C576.61 483.499 576.927 484.651 577.591 485.324 578.24 486.012 579.394 486.341 581.052 486.341L585.033 486.341 585.033 491.068 580.187 491.068C577.187 491.068 574.937 490.35 573.437 488.914 571.937 487.478 571.187 485.129 571.187 481.854L571.187 462.11 567.033 462.11 567.033 457.504 571.187 457.504 571.187 449.067 576.61 449.067 576.61 457.504 585.033 457.504 585.033 462.11Z"
            fill="#7A0000" fill-rule="evenodd" />
        <path
            d="M625.035 457.067 625.035 490.59 619.615 490.59 619.615 485.63C618.607 487.348 617.194 488.677 615.349 489.633 613.504 490.59 611.486 491.067 609.295 491.067 606.787 491.067 604.524 490.53 602.492 489.454 600.489 488.378 598.918 486.765 597.765 484.614 596.612 482.433 596.035 479.804 596.035 476.726L596.035 457.067 601.339 457.067 601.339 475.949C601.339 479.266 602.146 481.805 603.761 483.598 605.375 485.361 607.58 486.227 610.391 486.227 613.23 486.227 615.479 485.316 617.137 483.479 618.78 481.656 619.615 478.982 619.615 475.472L619.615 457.067Z"
            fill="#7A0000" fill-rule="evenodd" />
        <path
            d="M644.47 463.081C645.433 461.175 646.805 459.717 648.557 458.675 650.338 457.603 652.499 457.067 655.039 457.067L655.039 462.783 653.638 462.783C647.521 462.783 644.47 466.163 644.47 472.906L644.47 491.067 639.039 491.067 639.039 457.663 644.47 457.663Z"
            fill="#7A0000" fill-rule="evenodd" />
        <path
            d="M664.039 473.919C664.039 470.557 664.686 467.607 666.008 465.052 667.315 462.512 669.115 460.56 671.407 459.18 673.684 457.771 676.215 457.066 678.999 457.066 681.769 457.066 684.173 457.697 686.198 458.945 688.251 460.164 689.769 461.705 690.753 463.584L690.753 457.595 696.04 457.595 696.04 490.538 690.753 490.538 690.753 484.431C689.741 486.354 688.194 487.939 686.142 489.187 684.075 490.45 681.671 491.066 678.943 491.066 676.131 491.066 673.6 490.347 671.351 488.893 669.101 487.455 667.315 485.429 666.008 482.845 664.686 480.232 664.039 477.252 664.039 473.919ZM690.753 473.978C690.753 471.512 690.261 469.368 689.291 467.519 688.349 465.684 687.056 464.274 685.411 463.291 683.793 462.322 682.008 461.823 680.068 461.823 678.071 461.823 676.272 462.322 674.669 463.291 673.052 464.23 671.758 465.625 670.788 467.46 669.846 469.309 669.382 471.453 669.382 473.919 669.382 476.474 669.846 478.676 670.788 480.555 671.758 482.405 673.052 483.814 674.669 484.783 676.272 485.767 678.071 486.251 680.068 486.251 682.008 486.251 683.793 485.767 685.411 484.783 687.056 483.814 688.349 482.405 689.291 480.555 690.261 478.676 690.753 476.488 690.753 473.978Z"
            fill="#7A0000" fill-rule="evenodd" />
        <path
            d="M755.075 481.439 737.017 481.439 733.718 491.068 728.046 491.068 742.978 448.068 749.171 448.068 764.046 491.068 758.374 491.068ZM753.512 476.896 746.046 455.033 738.58 476.896Z"
            fill="#7A0000" fill-rule="evenodd" />
        <path
            d="M790.789 457.067C794.738 457.067 797.938 458.303 800.359 460.759 802.81 463.23 804.049 466.758 804.049 471.358L804.049 491.067 798.687 491.067 798.687 472.191C798.687 468.857 797.88 466.326 796.266 464.57 794.681 462.783 792.49 461.89 789.693 461.89 786.84 461.89 784.577 462.813 782.89 464.629 781.233 466.46 780.411 469.125 780.411 472.608L780.411 491.067 775.049 491.067 775.049 457.663 780.411 457.663 780.411 462.426C781.478 460.729 782.919 459.419 784.735 458.496 786.58 457.543 788.598 457.067 790.789 457.067Z"
            fill="#7A0000" fill-rule="evenodd" />
        <path
            d="M824.629 462.11 824.629 481.854C824.629 483.499 824.947 484.651 825.61 485.324 826.259 486.012 827.413 486.341 829.072 486.341L833.053 486.341 833.053 491.068 828.207 491.068C825.207 491.068 822.957 490.35 821.456 488.914 819.956 487.478 819.206 485.129 819.206 481.854L819.206 462.11 815.053 462.11 815.053 457.504 819.206 457.504 819.206 449.067 824.629 449.067 824.629 457.504 833.053 457.504 833.053 462.11Z"
            fill="#7A0000" fill-rule="evenodd" />
        <path
            d="M846.637 451.73C845.629 451.73 844.761 451.368 844.061 450.644 843.389 449.89 843.053 448.955 843.053 447.869 843.053 446.828 843.389 445.938 844.061 445.214 844.761 444.46 845.629 444.068 846.637 444.068 847.603 444.068 848.401 444.46 849.045 445.214 849.717 445.938 850.053 446.828 850.053 447.869 850.053 448.955 849.717 449.89 849.045 450.644 848.401 451.368 847.603 451.73 846.637 451.73ZM849.157 457.221 849.157 491.068 843.949 491.068 843.949 457.221Z"
            fill="#7A0000" fill-rule="evenodd" />
        <path
            d="M861.057 473.978C861.057 470.572 861.725 467.607 863.092 465.052 864.444 462.512 866.32 460.56 868.734 459.18 871.133 457.771 873.867 457.066 876.935 457.066 880.962 457.066 884.277 458.05 886.88 460.002 889.469 461.969 891.199 464.685 892.057 468.165L886.182 468.165C885.63 466.168 884.554 464.582 882.925 463.408 881.326 462.234 879.334 461.646 876.935 461.646 873.867 461.646 871.366 462.733 869.432 464.876 867.527 467.034 866.582 470.073 866.582 473.978 866.582 477.971 867.527 481.054 869.432 483.197 871.366 485.355 873.867 486.427 876.935 486.427 879.334 486.427 881.326 485.884 882.925 484.783 884.51 483.653 885.601 482.052 886.182 479.968L892.057 479.968C891.155 483.344 889.396 486.045 886.764 488.071 884.161 490.068 880.89 491.066 876.935 491.066 873.867 491.066 871.133 490.391 868.734 489.011 866.32 487.602 864.444 485.605 863.092 483.021 861.725 480.437 861.057 477.428 861.057 473.978Z"
            fill="#7A0000" fill-rule="evenodd" />
        <path
            d="M917.861 491.066C914.883 491.066 912.189 490.391 909.79 489.011 907.377 487.602 905.473 485.605 904.09 483.021 902.735 480.408 902.058 477.384 902.058 473.978 902.058 470.616 902.749 467.636 904.146 465.052 905.571 462.468 907.49 460.501 909.903 459.121 912.344 457.756 915.067 457.066 918.086 457.066 921.092 457.066 923.801 457.756 926.213 459.121 928.654 460.501 930.573 462.468 931.97 465.052 933.353 467.607 934.058 470.572 934.058 473.978 934.058 477.384 933.338 480.408 931.914 483.021 930.474 485.605 928.527 487.602 926.044 489.011 923.561 490.391 920.824 491.066 917.861 491.066ZM917.861 486.251C919.737 486.251 921.501 485.81 923.166 484.9 924.816 483.961 926.157 482.581 927.173 480.731 928.189 478.896 928.697 476.65 928.697 473.978 928.697 471.365 928.189 469.133 927.173 467.284 926.185 465.449 924.887 464.083 923.279 463.173 921.656 462.278 919.906 461.823 918.03 461.823 916.069 461.823 914.277 462.278 912.668 463.173 911.088 464.083 909.804 465.449 908.831 467.284 907.885 469.133 907.42 471.365 907.42 473.978 907.42 476.679 907.885 478.955 908.831 480.79 909.762 482.64 911.032 484.005 912.612 484.9 914.192 485.81 915.942 486.251 917.861 486.251Z"
            fill="#7A0000" fill-rule="evenodd" />
        <path
            d="M951.494 463.081C952.458 461.175 953.83 459.717 955.582 458.675 957.363 457.603 959.524 457.067 962.064 457.067L962.064 462.783 960.662 462.783C954.545 462.783 951.494 466.163 951.494 472.906L951.494 491.067 946.064 491.067 946.064 457.663 951.494 457.663Z"
            fill="#7A0000" fill-rule="evenodd" />
        <path
            d="M978.153 463.081C979.056 461.175 980.343 459.717 981.985 458.675 983.655 457.603 985.68 457.067 988.062 457.067L988.062 462.783 986.748 462.783C981.013 462.783 978.153 466.163 978.153 472.906L978.153 491.067 973.062 491.067 973.062 457.663 978.153 457.663Z"
            fill="#7A0000" fill-rule="evenodd" />
        <path
            d="M1028.07 457.067 1028.07 490.59 1022.65 490.59 1022.65 485.63C1021.64 487.348 1020.23 488.677 1018.38 489.633 1016.54 490.59 1014.52 491.067 1012.33 491.067 1009.82 491.067 1007.56 490.53 1005.52 489.454 1003.52 488.378 1001.95 486.765 1000.8 484.614 999.644 482.433 999.067 479.804 999.067 476.726L999.067 457.067 1004.37 457.067 1004.37 475.949C1004.37 479.266 1005.18 481.805 1006.79 483.598 1008.41 485.361 1010.61 486.227 1013.42 486.227 1016.26 486.227 1018.51 485.316 1020.17 483.479 1021.81 481.656 1022.65 478.982 1022.65 475.472L1022.65 457.067Z"
            fill="#7A0000" fill-rule="evenodd" />
        <path
            d="M1047.3 463.63C1048.34 461.755 1049.89 460.202 1051.91 458.941 1053.96 457.696 1056.37 457.066 1059.11 457.066 1061.92 457.066 1064.47 457.769 1066.76 459.176 1069.04 460.553 1070.82 462.502 1072.1 465.037 1073.41 467.587 1074.07 470.532 1074.07 473.888 1074.07 477.214 1073.41 480.189 1072.1 482.797 1070.82 485.376 1069.04 487.398 1066.76 488.834 1064.47 490.285 1061.92 491.003 1059.11 491.003 1056.41 491.003 1054.02 490.387 1051.97 489.127 1049.94 487.882 1048.38 486.314 1047.3 484.438L1047.3 506.066 1042.07 506.066 1042.07 457.593 1047.3 457.593ZM1068.73 473.888C1068.73 471.426 1068.23 469.287 1067.26 467.44 1066.32 465.609 1065.03 464.217 1063.38 463.279 1061.77 462.312 1059.97 461.814 1057.98 461.814 1056.07 461.814 1054.29 462.312 1052.64 463.279 1051.02 464.261 1049.73 465.682 1048.76 467.557 1047.78 469.404 1047.3 471.529 1047.3 473.946 1047.3 476.452 1047.78 478.635 1048.76 480.511 1049.73 482.357 1051.02 483.764 1052.64 484.731 1054.29 485.713 1056.07 486.197 1057.98 486.197 1059.97 486.197 1061.77 485.713 1063.38 484.731 1065.03 483.764 1066.32 482.357 1067.26 480.511 1068.23 478.635 1068.73 476.438 1068.73 473.888Z"
            fill="#7A0000" fill-rule="evenodd" />
        <path
            d="M1084.07 473.978C1084.07 470.572 1084.74 467.607 1086.11 465.052 1087.46 462.512 1089.34 460.56 1091.75 459.18 1094.15 457.771 1096.88 457.066 1099.95 457.066 1103.98 457.066 1107.3 458.05 1109.9 460.002 1112.49 461.969 1114.22 464.685 1115.07 468.165L1109.2 468.165C1108.65 466.168 1107.57 464.582 1105.94 463.408 1104.34 462.234 1102.35 461.646 1099.95 461.646 1096.88 461.646 1094.38 462.733 1092.45 464.876 1090.54 467.034 1089.6 470.073 1089.6 473.978 1089.6 477.971 1090.54 481.054 1092.45 483.197 1094.38 485.355 1096.88 486.427 1099.95 486.427 1102.35 486.427 1104.34 485.884 1105.94 484.783 1107.53 483.653 1108.62 482.052 1109.2 479.968L1115.07 479.968C1114.17 483.344 1112.41 486.045 1109.78 488.071 1107.18 490.068 1103.91 491.066 1099.95 491.066 1096.88 491.066 1094.15 490.391 1091.75 489.011 1089.34 487.602 1087.46 485.605 1086.11 483.021 1084.74 480.437 1084.07 477.428 1084.07 473.978Z"
            fill="#7A0000" fill-rule="evenodd" />
        <path
            d="M1129.66 451.73C1128.65 451.73 1127.78 451.368 1127.08 450.644 1126.41 449.89 1126.07 448.955 1126.07 447.869 1126.07 446.828 1126.41 445.938 1127.08 445.214 1127.78 444.46 1128.65 444.068 1129.66 444.068 1130.62 444.068 1131.42 444.46 1132.07 445.214 1132.74 445.938 1133.08 446.828 1133.08 447.869 1133.08 448.955 1132.74 449.89 1132.07 450.644 1131.42 451.368 1130.62 451.73 1129.66 451.73ZM1132.18 457.221 1132.18 491.068 1126.97 491.068 1126.97 457.221Z"
            fill="#7A0000" fill-rule="evenodd" />
        <path
            d="M1160.38 491.068C1157.31 491.068 1154.53 490.378 1152.05 488.968 1149.56 487.529 1147.6 485.49 1146.17 482.851 1144.78 480.182 1144.08 477.093 1144.08 473.615 1144.08 470.181 1144.79 467.137 1146.23 464.498 1147.7 461.86 1149.68 459.85 1152.17 458.441 1154.69 457.046 1157.49 456.342 1160.61 456.342 1163.71 456.342 1166.5 457.046 1168.99 458.441 1171.51 459.85 1173.49 461.86 1174.93 464.498 1176.35 467.107 1177.08 470.136 1177.08 473.615 1177.08 477.093 1176.34 480.182 1174.87 482.851 1173.38 485.49 1171.38 487.529 1168.81 488.968 1166.25 490.378 1163.43 491.068 1160.38 491.068ZM1160.38 486.15C1162.31 486.15 1164.13 485.7 1165.85 484.77 1167.55 483.811 1168.93 482.401 1169.98 480.512 1171.03 478.637 1171.55 476.344 1171.55 473.615 1171.55 470.946 1171.03 468.667 1169.98 466.777 1168.96 464.903 1167.62 463.509 1165.96 462.579 1164.29 461.665 1162.49 461.2 1160.55 461.2 1158.53 461.2 1156.68 461.665 1155.02 462.579 1153.39 463.509 1152.07 464.903 1151.06 466.777 1150.09 468.667 1149.61 470.946 1149.61 473.615 1149.61 476.373 1150.09 478.698 1151.06 480.572 1152.02 482.461 1153.33 483.856 1154.96 484.77 1156.59 485.7 1158.4 486.15 1160.38 486.15ZM1166.49 446.925 1153.74 453.943 1153.74 449.744 1166.49 442.067Z"
            fill="#7A0000" fill-rule="evenodd" />
        <path
            d="M1204.28 457.067C1208.09 457.067 1211.18 458.303 1213.52 460.759 1215.88 463.23 1217.08 466.758 1217.08 471.358L1217.08 491.067 1211.9 491.067 1211.9 472.191C1211.9 468.857 1211.12 466.326 1209.56 464.57 1208.03 462.783 1205.92 461.89 1203.22 461.89 1200.46 461.89 1198.28 462.813 1196.65 464.629 1195.05 466.46 1194.26 469.125 1194.26 472.608L1194.26 491.067 1189.08 491.067 1189.08 457.663 1194.26 457.663 1194.26 462.426C1195.29 460.729 1196.68 459.419 1198.43 458.496 1200.21 457.543 1202.16 457.067 1204.28 457.067Z"
            fill="#7A0000" fill-rule="evenodd" />
    </g>
</svg>